<?xml version="1.0" encoding="UTF-8"?>
<svg width="604px" height="604px" viewBox="0 0 604 604" version="1.1" xmlns="http://www.w3.org/2000/svg" xmlns:xlink="http://www.w3.org/1999/xlink">
    <!-- Generator: Sketch 51.3 (57544) - http://www.bohemiancoding.com/sketch -->
    <title>Logo Check White</title>
    <desc>Created with Sketch.</desc>
    <defs></defs>
    <g id="Page-1" stroke="none" stroke-width="1" fill="none" fill-rule="evenodd" opacity="0.12">
        <g id="404" transform="translate(-210.000000, -25.000000)" fill="#FFFFFF">
            <g id="Logo-Check-White" transform="translate(511.784271, 326.784271) rotate(-45.000000) translate(-511.784271, -326.784271) translate(298.390567, 113.390567)">
                <rect id="Rectangle" fill-opacity="0.7" x="0" y="0" width="106.75" height="106.75"></rect>
                <rect id="Rectangle-Copy-3" fill-opacity="0.4" x="0" y="106.75" width="106.75" height="106.75"></rect>
                <rect id="Rectangle-Copy-7" fill-opacity="0.4" x="0" y="213.5" width="106.75" height="106.75"></rect>
                <rect id="Rectangle-Copy-8" fill-opacity="0.55" x="0" y="320.25" width="106.75" height="106.75"></rect>
                <rect id="Rectangle-Copy-9" fill-opacity="0.55" x="106.75" y="320.25" width="106.75" height="106.75"></rect>
                <rect id="Rectangle-Copy-10" fill-opacity="0.7" x="213.5" y="320.25" width="106.75" height="106.75"></rect>
                <rect id="Rectangle-Copy-11" fill-opacity="0.7" x="320.25" y="320.25" width="106.75" height="106.75"></rect>
                <rect id="Rectangle-Copy" fill-opacity="0.7" x="106.75" y="0" width="106.75" height="106.75"></rect>
                <rect id="Rectangle-Copy-12" x="106.75" y="106.75" width="106.75" height="106.75"></rect>
                <rect id="Rectangle-Copy-13" x="106.75" y="213.5" width="106.75" height="106.75"></rect>
                <rect id="Rectangle-Copy-14" x="213.5" y="213.5" width="106.75" height="106.75"></rect>
                <rect id="Rectangle-Copy-15" x="320.25" y="213.5" width="106.75" height="106.75"></rect>
                <rect id="Rectangle-Copy-2" fill-opacity="0.55" x="213.5" y="0" width="106.75" height="106.75"></rect>
                <rect id="Rectangle-Copy-6" fill-opacity="0.4" x="213.5" y="106.75" width="106.75" height="106.75"></rect>
                <rect id="Rectangle-Copy-4" fill-opacity="0.55" x="320.25" y="0" width="106.75" height="106.75"></rect>
                <rect id="Rectangle-Copy-5" fill-opacity="0.4" x="320.25" y="106.75" width="106.75" height="106.75"></rect>
            </g>
        </g>
    </g>
</svg>