<?xml version="1.0" encoding="UTF-8"?>
<svg width="72px" height="74px" viewBox="0 0 72 74" version="1.1" xmlns="http://www.w3.org/2000/svg" xmlns:xlink="http://www.w3.org/1999/xlink">
    <!-- Generator: Sketch 51.3 (57544) - http://www.bohemiancoding.com/sketch -->
    <title>Logo error</title>
    <desc>Created with Sketch.</desc>
    <defs></defs>
    <g id="Page-1" stroke="none" stroke-width="1" fill="none" fill-rule="evenodd">
        <g id="404" transform="translate(-476.000000, -245.000000)">
            <g id="Logo-error" transform="translate(512.000000, 281.000000) rotate(-45.000000) translate(-512.000000, -281.000000) translate(487.000000, 256.000000)">
                <g id="Group">
                    <rect id="Rectangle" fill="#F6685E" x="0" y="0" width="12.5" height="12.5"></rect>
                    <rect id="Rectangle-Copy-3" fill="#AB003C" x="0" y="12.5" width="12.5" height="12.5"></rect>
                    <rect id="Rectangle-Copy-7" fill="#AB003C" x="0" y="25" width="12.5" height="12.5"></rect>
                    <rect id="Rectangle-Copy-8" fill="#F50057" x="0" y="37.5" width="12.5" height="12.5"></rect>
                    <rect id="Rectangle-Copy-9" fill="#F50057" x="12.5" y="37.5" width="12.5" height="12.5"></rect>
                    <rect id="Rectangle-Copy-10" fill="#F73378" x="25" y="37.5" width="12.5" height="12.5"></rect>
                    <rect id="Rectangle-Copy-11" fill="#F73378" x="37.5" y="37.5" width="12.5" height="12.5"></rect>
                    <rect id="Rectangle-Copy" fill="#F6685E" x="12.5" y="0" width="12.5" height="12.5"></rect>
                    <rect id="Rectangle-Copy-12" fill="#FFFFFF" x="12.5" y="12.5" width="12.5" height="12.5"></rect>
                    <rect id="Rectangle-Copy-13" fill="#FFFFFF" x="12.5" y="25" width="12.5" height="12.5"></rect>
                    <rect id="Rectangle-Copy-14" fill="#FFFFFF" x="25" y="25" width="12.5" height="12.5"></rect>
                    <rect id="Rectangle-Copy-15" fill="#FFFFFF" x="37.5" y="25" width="12.5" height="12.5"></rect>
                    <rect id="Rectangle-Copy-2" fill="#F44336" x="25" y="0" width="12.5" height="12.5"></rect>
                    <rect id="Rectangle-Copy-6" fill="#AA2E25" x="25" y="12.5" width="12.5" height="12.5"></rect>
                    <rect id="Rectangle-Copy-4" fill="#F44336" x="37.5" y="0" width="12.5" height="12.5"></rect>
                    <rect id="Rectangle-Copy-5" fill="#AA2E25" x="37.5" y="12.5" width="12.5" height="12.5"></rect>
                </g>
            </g>
        </g>
    </g>
</svg>